<svg width="41" height="52" viewBox="0 0 41 52" fill="none" xmlns="http://www.w3.org/2000/svg">
<path d="M34.6307 21.4205C37.2567 21.211 39.9544 21.2522 40.5807 24.3112C41.207 27.3702 41.041 40.6684 40.6712 44.0491C40.2298 48.0879 37.2265 50.9188 33.28 51.6817C25.1644 51.0796 15.5925 52.6016 7.65424 51.7153C3.67379 51.2703 0.783718 47.8111 0.338511 44.0079C-0.159517 39.7522 -0.0463287 31.1996 0.281917 26.828C0.591298 22.6919 1.83259 20.9081 6.33748 21.4242C6.48463 15.8895 5.36029 10.2202 8.98609 5.53817C15.3284 -2.65165 29.4618 -1.72048 33.5668 8.08113C33.7743 8.57477 34.6307 10.8672 34.6307 11.1402V21.4242V21.4205ZM29.7259 21.4205V12.2583C29.7259 4.55839 15.8679 1.57041 12.4081 9.67796C12.2384 10.0781 11.6158 12.0152 11.6158 12.2583V20.8595L12.1818 21.4205H29.7259ZM18.4071 37.3139C18.6524 38.7687 18.4071 41.3041 18.4071 42.9234C18.4071 44.0453 22.1084 42.7776 22.9346 43.1104V36.566C22.9346 36.1397 24.5193 34.8159 24.7419 33.8735C26.368 26.9663 16.9319 26.2596 16.1622 31.7381C15.7585 34.6027 18.0449 35.1487 18.4071 37.3177V37.3139Z" fill="#8B1E1E"/>
</svg>
